<svg width="195" height="89" viewBox="0 0 195 89" fill="none" xmlns="http://www.w3.org/2000/svg">
<g style="mix-blend-mode:multiply" opacity="0.06">
<path d="M53.384 54.9164L0.24585 141.841L49.9937 223H199.59V0.333496L196.412 8.4659H193.021L191.432 16.0807H189.313C188.748 17.3499 187.576 19.8882 187.406 19.8882C187.237 19.8882 186.135 21.4111 185.605 22.1726L181.049 24.4571L178.401 27.503L174.163 24.4571L171.938 22.1726L168.76 27.503H165.475L162.721 22.1726C161.661 21.4111 159.5 19.8882 159.33 19.8882C159.161 19.8882 157.777 18.3652 157.106 17.6037H155.41L151.384 19.8882L147.888 22.1726L146.299 27.503L141.531 29.7874L139.095 32.0719L136.34 35.8793L133.691 45.0171H132.526L129.348 42.7327L126.275 35.8793L123.626 32.0719H122.037L119.283 29.7874L115.363 32.0719H111.655L107.946 35.8793L104.238 40.4482L101.484 45.0171L98.5172 47.3016L94.4912 45.0171L91.3128 47.3016L88.1344 49.586L85.1679 47.3016L81.142 52.6319L77.7517 49.586L74.3614 52.6319H71.077L67.5808 54.9164H63.9786L60.3765 57.2008L56.8802 52.6319L53.384 54.9164Z" fill="url(#paint0_linear_221_7700)"/>
</g>
<defs>
<linearGradient id="paint0_linear_221_7700" x1="124.792" y1="0.333496" x2="124.792" y2="213.087" gradientUnits="userSpaceOnUse">
<stop stop-color="#040428"/>
<stop offset="1" stop-color="#040428" stop-opacity="0"/>
</linearGradient>
</defs>
</svg>
